<svg width="172" height="49" viewBox="0 0 172 49" fill="none" xmlns="http://www.w3.org/2000/svg">
<path d="M5.55548 46.7624L5.31075 43.9651C6.0041 43.9045 6.63604 43.6926 7.20656 43.3295C7.77918 42.9903 8.24675 42.5519 8.60927 42.0142C8.97388 41.5005 9.1659 40.9416 9.18534 40.3376L0.829012 22.8916L3.94909 22.6186L10.6056 36.7442L14.3852 21.7055L17.5412 21.4294L12.7071 38.8731C12.3108 40.4015 11.8359 41.7199 11.2824 42.8283C10.731 43.9607 10.0022 44.8556 9.09607 45.5131C8.21593 46.1924 7.03573 46.6089 5.55548 46.7624ZM28.9057 38.9376C27.1843 39.0882 25.6337 38.8504 24.2539 38.2243C22.8979 37.5961 21.7908 36.6449 20.9325 35.3709C20.096 34.0709 19.5983 32.5123 19.4393 30.6952C19.2553 28.5913 19.4841 26.8005 20.1257 25.323C20.7674 23.8454 21.7024 22.6916 22.9307 21.8613C24.1829 21.029 25.6339 20.5407 27.2836 20.3964C28.9811 20.2479 30.5068 20.4758 31.8606 21.0801C33.2383 21.6823 34.3595 22.6563 35.2241 24.0021C36.0886 25.3478 36.613 27.0727 36.797 29.1766C36.956 30.9937 36.7245 32.6161 36.1026 34.0437C35.4786 35.4474 34.5415 36.5774 33.2913 37.4336C32.0651 38.2877 30.6032 38.7891 28.9057 38.9376ZM28.6673 36.212C29.9344 36.1011 30.9863 35.732 31.8228 35.1047C32.6572 34.4535 33.2597 33.6299 33.6303 32.6338C34.0009 31.6377 34.136 30.5659 34.0356 29.4182C33.8641 27.4577 33.2088 25.8889 32.0699 24.7117C30.9528 23.5084 29.4379 22.9905 27.5252 23.1578C25.5886 23.3273 24.1747 24.1014 23.2835 25.4804C22.3923 26.8593 22.0314 28.5171 22.2008 30.4537C22.3033 31.6252 22.6115 32.6703 23.1256 33.589C23.6614 34.4817 24.3967 35.1762 25.3316 35.6726C26.2643 36.1452 27.3762 36.3249 28.6673 36.212ZM55.4039 36.1856L52.5707 36.4335L52.4076 34.5686C51.9921 35.3277 51.3578 35.9253 50.5046 36.3613C49.6513 36.7973 48.6998 37.0733 47.6499 37.1893C46.6021 37.3291 45.5635 37.2995 44.5343 37.1005C43.5029 36.8775 42.6134 36.4855 41.8656 35.9246C41.094 35.3657 40.4631 34.6259 39.973 33.7051C39.5068 32.7822 39.2193 31.6991 39.1105 30.4559L38.163 19.6253L41.032 19.3742L41.9796 30.2049C42.1239 31.8546 42.6957 33.0212 43.6951 33.7047C44.7184 34.3861 45.9712 34.6619 47.4535 34.5323C48.1947 34.4674 48.9212 34.2352 49.6331 33.8356C50.3689 33.434 50.9575 32.8645 51.399 32.1272C51.8622 31.364 52.0457 30.4324 51.9495 29.3326L51.0019 18.502L53.8351 18.2541L55.4039 36.1856ZM59.0025 35.8708L57.4526 18.1545L60.2857 17.9066L60.4301 19.5563C61.1417 18.6026 62.0629 17.98 63.1938 17.6883C64.3486 17.3945 65.8325 17.4213 67.6457 17.7686L66.5384 20.3951C65.4291 20.1067 64.4197 20.1348 63.5102 20.4793C62.6226 20.7979 61.9311 21.2921 61.4355 21.9618C60.94 22.6315 60.7356 23.324 60.8223 24.0392L61.8357 35.6229L59.0025 35.8708Z" fill="#9E00FF"/>
<path d="M74.8641 34.4831L72.0309 34.731L69.8346 9.62684L72.6677 9.37897L74.8641 34.4831ZM94.2996 24.6156L80.3489 25.8361C80.5327 27.386 81.0588 28.5807 81.9273 29.4202C82.7958 30.2597 83.8522 30.7696 85.0967 30.9498C86.3411 31.13 87.642 30.9921 88.9994 30.5361C90.3569 30.08 91.6164 29.3314 92.7781 28.2902L94.4789 30.3819C93.3868 31.393 92.226 32.1691 90.9965 32.7103C89.767 33.2515 88.5197 33.5895 87.2547 33.7243C84.2724 34.0575 81.9169 33.4324 80.1883 31.849C78.4577 30.2417 77.4564 27.884 77.1845 24.7759C76.9523 22.122 77.5083 19.9413 78.8526 18.2336C80.2208 16.5239 82.3285 15.5565 85.1757 15.3315C87.0406 15.1683 88.664 15.4118 90.0459 16.0618C91.4278 16.7118 92.4955 17.7628 93.2489 19.2146C93.6245 19.9286 93.888 20.7367 94.0392 21.639C94.2143 22.5391 94.3011 23.5314 94.2996 24.6156ZM85.5514 17.9728C83.9256 18.115 82.5765 18.6667 81.5042 19.6278C80.4537 20.5629 80.0017 21.8673 80.1481 23.5409L91.5525 22.5431C91.4145 20.9652 90.8047 19.7778 89.7231 18.981C88.6634 18.1583 87.2728 17.8222 85.5514 17.9728ZM104.117 32.1045C102.439 32.2031 100.999 31.8593 99.7982 31.073C98.595 30.2627 97.9181 28.9969 97.7675 27.2755C97.6106 25.4823 98.0142 24.0377 98.9783 22.9415C99.9404 21.8214 101.317 21.0384 103.109 20.5925C104.901 20.1466 106.939 20.0286 109.222 20.2384L109.109 18.9473C109.036 18.1105 108.715 17.4761 108.147 17.0439C107.577 16.5878 106.867 16.3127 106.015 16.2186C105.188 16.1223 104.326 16.1857 103.43 16.4086C102.556 16.6056 101.743 16.9537 100.992 17.4531C100.238 17.9286 99.6756 18.5199 99.3038 19.227L97.3834 17.5158C98.0451 16.5425 98.88 15.7587 99.888 15.1646C100.92 14.5684 102.003 14.1483 103.139 13.9045C104.274 13.6606 105.389 13.5992 106.483 13.7203C107.578 13.8413 108.557 14.1532 109.42 14.6559C110.251 15.065 110.843 15.6396 111.197 16.3796C111.573 17.0935 111.827 17.9386 111.961 18.9146C112.094 19.8907 112.21 20.9406 112.309 22.0643L113.102 31.1377L110.233 31.3887L110.086 29.7031C109.258 30.426 108.319 30.99 107.271 31.3949C106.222 31.7998 105.171 32.0364 104.117 32.1045ZM109.791 27.1631L109.38 22.4651C106.504 22.3553 104.253 22.6486 102.627 23.345C101.002 24.0413 100.266 25.2621 100.418 27.0074C100.485 27.7725 100.753 28.3514 101.221 28.7441C101.713 29.1347 102.311 29.3714 103.017 29.4542C103.747 29.5349 104.526 29.4909 105.355 29.322C106.183 29.1532 106.99 28.8778 107.776 28.4958C108.562 28.1139 109.233 27.6697 109.791 27.1631ZM125.358 37.4375C124.282 37.5316 123.187 37.4106 122.074 37.0743C120.986 36.7599 120.055 36.2994 119.279 35.6927L120.896 33.5275C121.787 34.0759 122.769 34.4236 123.842 34.5707C124.941 34.7395 125.933 34.6527 126.819 34.3103C127.73 33.9896 128.365 33.392 128.722 32.5176C128.937 31.9447 129.067 31.3671 129.112 30.785C129.158 30.2028 129.143 29.4813 129.068 28.6206C127.637 29.6131 126.166 30.1513 124.656 30.2353C123.169 30.3172 121.772 30.0419 120.464 29.4095C119.153 28.7532 118.059 27.813 117.181 26.5889C116.301 25.3408 115.764 23.8821 115.57 22.2127C115.348 20.2324 115.524 18.5186 116.096 17.0713C116.668 15.6239 117.531 14.4763 118.685 13.6284C119.84 12.7806 121.193 12.2767 122.745 12.1169C124.319 11.931 125.975 12.1354 127.714 12.7302L127.632 11.7977L130.501 11.5467L132.035 29.0837C132.242 31.4507 131.797 33.3809 130.699 34.8742C129.601 36.3676 127.821 37.222 125.358 37.4375ZM118.403 21.9648C118.54 23.2538 118.946 24.3144 119.621 25.1467C120.294 25.9552 121.139 26.5317 122.157 26.8763C123.175 27.2209 124.268 27.318 125.435 27.1677C126.6 26.9935 127.743 26.5562 128.862 25.856L127.961 15.5633C125.923 14.8503 124.146 14.6324 122.628 14.9097C121.132 15.161 120.003 15.8862 119.241 17.0852C118.476 18.2603 118.197 19.8868 118.403 21.9648ZM150.98 27.8238L148.147 28.0717L147.984 26.2068C147.568 26.9659 146.934 27.5634 146.081 27.9995C145.228 28.4355 144.276 28.7115 143.226 28.8274C142.178 28.9673 141.14 28.9377 140.111 28.7386C139.079 28.5157 138.19 28.1237 137.442 27.5627C136.67 27.0039 136.039 26.264 135.549 25.3432C135.083 24.4204 134.796 23.3373 134.687 22.094L133.739 11.2634L136.608 11.0124L137.556 21.843C137.7 23.4927 138.272 24.6593 139.271 25.3428C140.295 26.0242 141.548 26.3001 143.03 26.1704C143.771 26.1056 144.498 25.8734 145.209 25.4738C145.945 25.0721 146.534 24.5027 146.975 23.7654C147.439 23.0021 147.622 22.0706 147.526 20.9708L146.578 10.1401L149.411 9.89228L150.98 27.8238ZM170.438 17.9543L156.488 19.1749C156.672 20.7247 157.198 21.9194 158.066 22.7589C158.935 23.5984 159.991 24.1083 161.235 24.2885C162.48 24.4687 163.781 24.3308 165.138 23.8748C166.496 23.4188 167.755 22.6701 168.917 21.6289L170.618 23.7206C169.526 24.7317 168.365 25.5078 167.135 26.049C165.906 26.5902 164.659 26.9282 163.394 27.063C160.411 27.3962 158.056 26.7711 156.327 25.1877C154.597 23.5805 153.595 21.2227 153.323 18.1146C153.091 15.4608 153.647 13.28 154.991 11.5723C156.36 9.86258 158.467 8.8952 161.315 8.6702C163.179 8.50704 164.803 8.75048 166.185 9.40051C167.567 10.0505 168.634 11.1015 169.388 12.5533C169.763 13.2673 170.027 14.0754 170.178 14.9777C170.353 15.8779 170.44 16.8701 170.438 17.9543ZM161.69 11.3115C160.064 11.4537 158.715 12.0054 157.643 12.9665C156.593 13.9017 156.141 15.206 156.287 16.8796L167.691 15.8819C167.553 14.3039 166.944 13.1165 165.862 12.3198C164.802 11.497 163.412 11.1609 161.69 11.3115Z" fill="white"/>
</svg>
